<?xml version="1.0" encoding="utf-8"?>
<!-- Generator: Adobe Illustrator 24.3.0, SVG Export Plug-In . SVG Version: 6.00 Build 0)  -->
<svg version="1.1" id="Layer_1" xmlns="http://www.w3.org/2000/svg" xmlns:xlink="http://www.w3.org/1999/xlink" x="0px" y="0px"
	 viewBox="0 0 244 51" style="enable-background:new 0 0 244 51;" xml:space="preserve">
<style type="text/css">
	.st0{fill:#FFFFFF;}
	.st1{fill:#2B2B2B;}
</style>
<g id="Group_101" transform="translate(0 -0.3)">
	<g id="Group_92" transform="translate(121.563 9.3)">
		<path id="Path_65" class="st0" d="M7.86,11.08V4.42h0.82v6.66L7.86,11.08z"/>
		<path id="Path_66" class="st0" d="M16.16,11.08L12.3,5.82v5.26h-0.93V4.42h0.82l3.86,5.14V4.42h0.82v6.66L16.16,11.08z"/>
		<path id="Path_67" class="st0" d="M20.95,11.08V5.24h-2.1V4.42h5.03v0.7h-2.1v5.84h-0.83V11.08z"/>
		<path id="Path_68" class="st0" d="M25.74,11.08V4.42h4.32v0.7h-3.51v2.1h3.51v0.7h-3.51v2.34h3.51v0.7h-4.32V11.08z"/>
		<path id="Path_69" class="st0" d="M36.38,11.08l-1.64-2.69h-1.29v2.69h-0.81V4.42h2.69c1.1-0.06,2.04,0.79,2.1,1.9
			c0,0.03,0,0.06,0,0.09c0.03,1.02-0.74,1.89-1.75,1.99l1.75,2.69L36.38,11.08z M36.5,6.4c-0.01-0.71-0.58-1.28-1.29-1.29h-1.75
			v2.57h1.75C35.92,7.68,36.49,7.11,36.5,6.4z"/>
		<path id="Path_70" class="st0" d="M44.56,11.08l-3.86-5.26v5.26h-0.82V4.42h0.82l3.86,5.14V4.42h0.82v6.66L44.56,11.08z"/>
		<path id="Path_71" class="st0" d="M52.86,11.08l-0.58-1.52h-3.27l-0.58,1.52h-0.94l2.69-6.66h1.05l2.69,6.66L52.86,11.08z
			 M50.52,5.24l-1.4,3.62h2.8L50.52,5.24z"/>
		<path id="Path_72" class="st0" d="M56.6,11.08V5.24h-2.1V4.42h5.03v0.7h-2.1v5.84H56.6V11.08z"/>
		<path id="Path_73" class="st0" d="M61.86,11.08V4.42h0.82v6.66L61.86,11.08z"/>
		<path id="Path_74" class="st0" d="M64.9,7.69c-0.13-1.74,1.18-3.26,2.92-3.38c0.12-0.01,0.23-0.01,0.35-0.01
			c1.78-0.03,3.25,1.39,3.28,3.17c0,0.07,0,0.15,0,0.22c0.06,1.81-1.35,3.32-3.16,3.39c-1.81,0.06-3.32-1.35-3.39-3.16
			C64.9,7.84,64.9,7.77,64.9,7.69L64.9,7.69z M70.63,7.69c0.13-1.36-0.87-2.56-2.23-2.68s-2.56,0.87-2.68,2.23
			c-0.01,0.15-0.01,0.3,0,0.45c-0.13,1.35,0.87,2.55,2.22,2.68c0.08,0.01,0.16,0.01,0.23,0.01c1.32,0.04,2.43-1,2.47-2.33
			C70.65,7.93,70.64,7.81,70.63,7.69L70.63,7.69z"/>
		<path id="Path_75" class="st0" d="M78.34,11.08L74.49,5.7v5.26h-0.82V4.42h0.82l3.86,5.14V4.42h0.82v6.66L78.34,11.08z"/>
		<path id="Path_76" class="st0" d="M86.41,11.08l-0.58-1.52h-3.27l-0.58,1.52h-0.94l2.69-6.66h1.05l2.69,6.66L86.41,11.08z
			 M84.19,5.24l-1.4,3.62h2.8L84.19,5.24z"/>
		<path id="Path_77" class="st0" d="M89.45,11.08V4.42h0.82v5.84h3.04v0.7h-3.86V11.08z"/>
	</g>
	<g id="Group_93" transform="translate(121.563 22.275)">
		<path id="Path_78" class="st0" d="M7.86,11.08V4.42h2.92c0.91-0.11,1.75,0.54,1.86,1.45c0.01,0.06,0.01,0.12,0.01,0.18
			c0.01,0.72-0.47,1.35-1.17,1.52c0.76,0.17,1.3,0.85,1.29,1.64c0.04,0.93-0.68,1.72-1.62,1.76c-0.08,0-0.17,0-0.25-0.01H7.86V11.08
			z M11.83,6.29c0.03-0.56-0.41-1.04-0.97-1.06c-0.07,0-0.13,0-0.2,0.01H8.68v2.1h1.99c0.59,0.05,1.12-0.39,1.17-0.98
			C11.83,6.33,11.83,6.31,11.83,6.29L11.83,6.29z M11.95,9.21c0-0.65-0.52-1.17-1.17-1.17H8.8v2.34h1.99
			c0.61,0.04,1.13-0.42,1.17-1.03C11.95,9.31,11.95,9.26,11.95,9.21L11.95,9.21z"/>
		<path id="Path_79" class="st0" d="M14.76,8.51V4.42h0.82v4.09c-0.07,1.03,0.71,1.92,1.75,1.99c1.03,0.07,1.92-0.71,1.99-1.75
			c0.01-0.08,0.01-0.16,0-0.24V4.42h0.82v4.09c0,1.48-1.2,2.69-2.69,2.69S14.76,9.99,14.76,8.51L14.76,8.51z"/>
		<path id="Path_80" class="st0" d="M21.65,10.14l0.47-0.58c0.55,0.58,1.3,0.92,2.1,0.93c1.17,0,1.52-0.58,1.52-1.17
			c0-1.75-3.97-0.7-3.97-3.16c0-1.05,0.93-1.87,2.34-1.87c0.88-0.04,1.73,0.3,2.34,0.93l-0.47,0.58C25.51,5.27,24.82,4.97,24.11,5
			c-0.82,0-1.4,0.47-1.4,1.05c0,1.52,3.97,0.58,3.97,3.16c0,0.93-0.7,1.99-2.46,1.99C23.26,11.22,22.33,10.84,21.65,10.14z"/>
		<path id="Path_81" class="st0" d="M28.9,11.08V4.42h0.82v6.66H28.9z"/>
		<path id="Path_82" class="st0" d="M37.2,11.08l-3.86-5.26v5.26h-0.82V4.42h0.82l3.86,5.14V4.42h0.82v6.66H37.2z"/>
		<path id="Path_83" class="st0" d="M40.47,11.08V4.42h4.32v0.7h-3.51v2.1h3.51v0.7h-3.51v2.34h3.51v0.7h-4.32V11.08z"/>
		<path id="Path_84" class="st0" d="M47.02,10.14l0.47-0.58c0.55,0.58,1.3,0.92,2.1,0.93c1.17,0,1.52-0.58,1.52-1.17
			c0-1.75-3.97-0.7-3.97-3.16c0-1.05,0.93-1.87,2.34-1.87c0.88-0.04,1.73,0.3,2.34,0.93l-0.47,0.58C50.88,5.27,50.19,4.97,49.47,5
			c-0.82,0-1.4,0.47-1.4,1.05c0,1.52,3.97,0.58,3.97,3.16c0,0.93-0.7,1.99-2.46,1.99C48.62,11.24,47.68,10.86,47.02,10.14z"/>
		<path id="Path_85" class="st0" d="M53.8,10.14l0.47-0.58c0.55,0.58,1.3,0.92,2.1,0.93c1.17,0,1.52-0.58,1.52-1.17
			c0-1.75-3.97-0.7-3.97-3.16c0-1.05,0.93-1.87,2.34-1.87c0.88-0.04,1.73,0.3,2.34,0.93l-0.47,0.58C57.66,5.27,56.97,4.97,56.25,5
			c-0.82,0-1.4,0.47-1.4,1.05c0,1.52,3.97,0.58,3.97,3.16c0,0.93-0.7,1.99-2.46,1.99C55.4,11.22,54.47,10.84,53.8,10.14z"/>
		<path id="Path_86" class="st0" d="M64.2,10.14l0.47-0.58c0.55,0.58,1.3,0.92,2.1,0.93c1.17,0,1.52-0.58,1.52-1.17
			c0-1.75-3.97-0.7-3.97-3.16c0-1.05,0.93-1.87,2.34-1.87c0.88-0.04,1.73,0.3,2.34,0.93l-0.47,0.58C68.06,5.27,67.37,4.97,66.65,5
			c-0.82,0-1.4,0.47-1.4,1.05c0,1.52,3.97,0.58,3.97,3.16c0,0.93-0.7,1.99-2.46,1.99C65.81,11.22,64.88,10.84,64.2,10.14z"/>
		<path id="Path_87" class="st0" d="M70.75,7.81C70.71,5.97,72.16,4.46,74,4.42c0.05,0,0.09,0,0.14,0c1.01,0.01,1.96,0.48,2.57,1.29
			l-0.7,0.35c-0.42-0.62-1.13-0.97-1.87-0.93c-1.41-0.01-2.56,1.12-2.58,2.52c0,0.05,0,0.11,0,0.16c-0.08,1.41,1,2.61,2.41,2.68
			c0.05,0,0.11,0,0.16,0c0.73-0.02,1.42-0.36,1.87-0.93l0.7,0.35c-0.58,0.84-1.55,1.33-2.57,1.29c-1.83,0.04-3.35-1.42-3.39-3.25
			C70.75,7.9,70.75,7.85,70.75,7.81z"/>
		<path id="Path_88" class="st0" d="M83.49,11.08V8.04h-3.86v3.04h-0.82V4.42h0.82v2.81h3.86V4.42h0.82v6.66H83.49z"/>
		<path id="Path_89" class="st0" d="M86.41,7.81c-0.13-1.74,1.18-3.26,2.92-3.38c0.12-0.01,0.23-0.01,0.35-0.01
			c1.78-0.03,3.25,1.39,3.28,3.17c0,0.07,0,0.15,0,0.22c0.13,1.74-1.18,3.26-2.92,3.38c-0.12,0.01-0.23,0.01-0.35,0.01
			c-1.78,0.03-3.25-1.39-3.28-3.17C86.4,7.95,86.41,7.88,86.41,7.81z M92.14,7.81c0.13-1.36-0.87-2.56-2.23-2.68S87.35,6,87.23,7.35
			c-0.01,0.15-0.01,0.3,0,0.45c-0.13,1.36,0.87,2.56,2.23,2.68s2.56-0.87,2.68-2.23C92.15,8.11,92.15,7.96,92.14,7.81z"/>
		<path id="Path_90" class="st0" d="M94.59,7.81c-0.13-1.74,1.18-3.26,2.92-3.38c0.12-0.01,0.23-0.01,0.35-0.01
			c1.78-0.03,3.25,1.39,3.28,3.17c0,0.07,0,0.15,0,0.22c0.13,1.74-1.18,3.26-2.92,3.38c-0.12,0.01-0.23,0.01-0.35,0.01
			c-1.78,0.03-3.25-1.39-3.28-3.17C94.59,7.95,94.59,7.88,94.59,7.81z M100.32,7.81c0.13-1.36-0.87-2.56-2.23-2.68
			S95.54,6,95.41,7.35c-0.01,0.15-0.01,0.3,0,0.45c-0.13,1.36,0.87,2.56,2.23,2.68s2.56-0.87,2.68-2.23
			C100.33,8.11,100.33,7.96,100.32,7.81z"/>
		<path id="Path_91" class="st0" d="M103.12,11.08V4.42h0.82v5.84h3.04v0.7h-3.86V11.08z"/>
	</g>
	<g id="Group_94" transform="translate(14.027 1.118)">
		<path id="Path_92" class="st0" d="M10.2,44.63c-0.6,0.03-1.19-0.18-1.64-0.58c-0.48-0.4-0.74-1.01-0.7-1.64V4.3h1.17v37.99
			c0.01,0.29,0.09,0.57,0.23,0.82c0.22,0.21,0.51,0.34,0.82,0.35L10.2,44.63L10.2,44.63z"/>
	</g>
	<g id="Group_95" transform="translate(3.507 9.3)">
		<path id="Path_93" class="st0" d="M23.06,16.81l-3.97-4.09l-4.21,4.09L7.86,9.79V4.3h5.49l5.61,5.61l5.61-5.61h5.49v5.49
			L23.06,16.81z M9.03,9.33l5.84,5.84l3.86-3.86l-5.84-5.84H9.03V9.33z M19.2,11.31l3.86,3.86l5.84-5.84V5.47h-3.86L19.2,11.31z"/>
	</g>
	<g id="Group_96" transform="translate(4.676 14.21)">
		<path id="Path_94" class="st0" d="M21.3,17.16l-2.34-2.34l-1.17,1.17l-1.16-1.17l-2.34,2.34l-6.43-5.85v-6.9l8.77,8.77l1.17-1.17
			l1.16,1.17l2.45-2.45l0.82,0.82L19.78,14l1.52,1.52l5.26-4.68V7.22l-0.7,0.7L25.05,7.1l2.8-2.8v6.9L21.3,17.16z M9.03,10.85
			l5.26,4.68L15.81,14L9.03,7.22V10.85z M17.45,14l0.35,0.35L18.15,14l-0.35-0.35L17.45,14z"/>
	</g>
	<g id="Group_97" transform="translate(10.52 0.3)">
		<path id="Path_95" class="st0" d="M12.07,17.16l-4.21-4.21V8.39l4.09-4.09l4.09,4.09v4.56L12.07,17.16z M9.03,12.48l3.04,3.04
			l2.81-3.04V8.86l-2.92-2.92L9.03,8.86V12.48z"/>
	</g>
	<g id="Group_98" transform="translate(0 5.794)">
		<path id="Path_96" class="st0" d="M22.47,35.86c-4.44,0-7.95-1.29-10.52-3.86c-4.09-4.09-4.09-9.94-4.09-10.17V4.3h10.52v1.17
			H9.03v16.36c0.08,2.27,0.64,4.5,1.64,6.55c2.22,4.21,6.2,6.31,11.81,6.31c4.09,0,7.36-1.17,9.7-3.51
			c3.74-3.74,3.74-9.35,3.74-9.35V5.47h-9.35V4.3h10.52v17.53c0,0.23,0,6.08-4.09,10.17C30.42,34.57,26.91,35.86,22.47,35.86z"/>
	</g>
	<g id="Group_99" transform="translate(3.624 9.417)">
		<path id="Path_97" class="st0" d="M18.85,16.11L7.86,5.24L8.8,4.3l10.05,10.17L28.9,4.3l0.93,0.94L18.85,16.11z"/>
	</g>
	<path id="Path_98" class="st0" d="M55.78,33.47h9.35v-0.58h-1.17c-1.52,0-1.75-0.58-1.75-1.75v-15.2c0-1.29,1.17-1.75,2.92-1.75
		V13.6h-8.18v0.58l0,0c1.99,0,2.34,0.47,2.34,1.75v7.01H48.77v-7.01c0-1.17,0.47-1.75,2.34-1.75V13.6h-8.18v0.58
		c1.75,0.12,2.22,0.35,2.34,1.75v15.2c-0.12,1.29-1.05,1.75-2.92,1.75l0,0v0.58h8.77v-0.58h-0.58c-1.64,0-1.75-0.93-1.75-1.75v-7.02
		h10.52v7.01c0,1.29-0.82,1.75-2.92,1.75h-0.58L55.78,33.47z"/>
	<path id="Path_99" class="st0" d="M124.75,13.6h-17.53l-0.58,4.68h0.58c0.12-2.81,1.52-3.51,2.92-3.51h4.09v15.78
		c0,1.17-0.47,1.75-1.75,1.75h-1.17v1.17h9.93V32.3h-1.17c-1.29,0-2.34-0.23-2.34-1.17V14.77h4.1c1.4,0,2.22,0.7,2.34,3.51h0.58
		L124.75,13.6z"/>
	<path id="Path_100" class="st0" d="M96.69,31.13v-15.2c0-1.29,0.7-1.75,2.69-1.75h1.17V13.6h-9.7v0.58l0,0
		c1.87,0,2.92,0.35,2.92,1.75v15.2c0,1.4-1.05,1.75-2.34,1.75h-0.58v0.58h14.03l1.17-3.51h-0.58c-1.05,1.87-0.93,2.34-2.92,2.34
		h-4.09C97.52,32.3,96.7,31.95,96.69,31.13"/>
	<path id="Path_101" class="st0" d="M88.51,14.18V13.6H81.5v0.58c2.1,0,2.34,0.82,2.34,1.75v10.52c0,4.79-2.34,5.84-5.26,5.84
		c-3.53,0.02-6.41-2.84-6.43-6.37c0-0.02,0-0.04,0-0.06v-9.35c0-1.75,0.35-2.34,2.1-2.34h0.58V13.6h-7.94v0.58
		c2.22,0,1.75,0.58,1.75,1.75v9.94c0,5.96,5.96,7.6,9.12,7.6c5.84,0,8.42-3.86,8.42-7.6v-9.93C86.17,14.77,86.41,14.19,88.51,14.18"
		/>
	<g id="Group_100" transform="translate(5.844 20.755)">
		<path id="Path_102" class="st0" d="M20.37,15.64h-2.81l-0.93-0.93l-0.94,0.93h-2.8l-5.03-5.03V4.3l8.77,8.18l8.77-8.18v6.31
			L20.37,15.64z M18.03,14.47h1.87l4.32-4.32V7.11l-7.01,6.55L18.03,14.47z M13.35,14.47h1.87l0.82-0.82L9.03,7.11v3.04L13.35,14.47
			z"/>
	</g>
</g>
</svg>
